# xmcd
#
# Track frame offsets: 
#        150
#        19439
#        40611
#        62663
#        75085
#        94176
#        113504
#        131509
#        146209
#        162231
#        180579
#        200107
#        210870
#        232293
#        250667
#
# Disc length: 3600 seconds
#
# Revision: 0
# Processed by: cddbd v1.5.2PL0 Copyright (c) Steve Scherf et al.
# Submitted via: ExactAudioCopy v1.0b1
#
DISCID=c60e0e0f
DTITLE=Notodden Blues Band - Så Langt Som Hit ...halve FUA ute CD1
DYEAR=2008
DGENRE=Blues
TTITLE0=Kristiansand(T.Ytterbø) Live!|
TTITLE1=Ain't Just Like A Woman - Live!
TTITLE2=Turn To Rain(Steve Wold)
TTITLE3=Arbeid(T. Ytterbø)
TTITLE4=Full Gass(Bent Bredesen)
TTITLE5=Georgia On My Mind - Live!
TTITLE6=Honey From The Jar
TTITLE7=Crazy Corner(T.Ytterbø) Live!
TTITLE8=Trives Best Aliene(T. Ytterbø)
TTITLE9=Få'kke Sove(Bent Bredesen)
TTITLE10=Blå Ord
TTITLE11=Laud Blues Med Sugeøl(T. Hefre)
TTITLE12=Den Skyldige
TTITLE13=20. Århundrets Peis
TTITLE14=Merry Christmas Baby(Charles Brown)
EXTD=
EXTT0=
EXTT1=
EXTT2=
EXTT3=
EXTT4=
EXTT5=
EXTT6=
EXTT7=
EXTT8=
EXTT9=
EXTT10=
EXTT11=
EXTT12=
EXTT13=
EXTT14=
PLAYORDER=
